<?xml version="1.0" standalone="no"?>
<!DOCTYPE svg PUBLIC "-//W3C//DTD SVG 20010904//EN"
 "http://www.w3.org/TR/2001/REC-SVG-20010904/DTD/svg10.dtd">
<svg version="1.0" xmlns="http://www.w3.org/2000/svg"
 width="16.000000pt" height="16.000000pt" viewBox="0 0 16.000000 16.000000"
 preserveAspectRatio="xMidYMid meet">
<metadata>
Created by potrace 1.11, written by Peter Selinger 2001-2013
</metadata>
<g transform="translate(0.000000,16.000000) scale(0.012308,-0.012308)"
fill="#000000" stroke="none">
<path d="M565 1294 c-143 -37 -240 -116 -302 -243 -32 -66 -36 -84 -39 -165
-2 -73 2 -103 19 -152 19 -54 389 -718 406 -728 12 -8 399 687 416 746 20 72
18 185 -6 254 -38 113 -114 198 -225 251 -61 29 -85 35 -160 38 -49 2 -98 2
-109 -1z m163 -64 c112 -26 207 -102 258 -206 33 -68 42 -185 19 -260 -7 -25
-66 -137 -129 -249 -64 -112 -122 -214 -129 -227 -36 -67 -92 -158 -97 -158
-13 0 -340 594 -355 645 -75 257 171 515 433 455z"/>
<path d="M503 1030 c-43 -28 -67 -90 -53 -138 11 -41 173 -212 202 -212 19 0
173 152 194 193 29 55 -5 142 -66 167 -18 7 -45 10 -67 6 -45 -8 -73 -8 -133
-1 -35 4 -52 1 -77 -15z m110 -60 c14 -11 30 -20 37 -20 7 0 23 9 37 20 32 25
54 25 84 2 42 -35 31 -70 -48 -150 l-70 -71 -72 70 c-67 67 -76 82 -72 119 3
20 39 50 61 50 9 0 29 -9 43 -20z"/>
</g>
</svg>
