<?xml version="1.0" encoding="utf-8"?>
<!-- Generator: Adobe Illustrator 19.0.0, SVG Export Plug-In . SVG Version: 6.00 Build 0)  -->
<svg version="1.1" id="Layer_1" xmlns="http://www.w3.org/2000/svg" xmlns:xlink="http://www.w3.org/1999/xlink" x="0px" y="0px"
	 viewBox="0 0 189.6 111.5" style="enable-background:new 0 0 189.6 111.5;" xml:space="preserve">
<style type="text/css">
	.st0{fill:#A60000;}
	.st1{fill:#B31212;}
	.st2{fill:#800000;}
</style>
<g id="Layer_2">
	<path id="XMLID_35_" class="st0" d="M129.2,22.4c-0.2-4.6-2.2-9.2-5.9-12.6c-1.8-1.7-3.9-2.9-6.1-3.7s-4.6-1.2-7-1.1
		c-5,0.2-9.5,2.4-12.6,5.9c-3.1,3.4-5,7.5-4.7,13.1c0.5,15.1,6.5,31.2,6.5,31.2s14.9-8.4,25.1-19.7
		C128.2,31.4,129.4,27.1,129.2,22.4L129.2,22.4z M116.2,25.2c-1,2.8-4.2,4.3-7,3.3c-2.8-1-4.3-4.2-3.3-7c1-2.8,4.2-4.3,7-3.3
		C115.7,19.2,117.2,22.3,116.2,25.2L116.2,25.2z"/>
	<path id="XMLID_32_" class="st1" d="M95.5,6.8c-3.6-4-8.8-6.6-14.7-6.8c-2.8-0.1-5.6,0.3-8.1,1.2c-2.5,0.9-4.9,2.3-7,4.3
		c-4.3,3.9-6.6,9.3-6.8,14.7s1.2,10.4,5.5,15.2c11.8,13.1,29.1,22.9,29.1,22.9s6.9-18.6,7.6-36.2C101.3,15.6,99.2,10.8,95.5,6.8
		L95.5,6.8z M82.2,27.2c-3.3,1.2-7-0.5-8.2-3.8c-1.2-3.3,0.5-7,3.8-8.2c3.3-1.2,7,0.5,8.2,3.8C87.2,22.3,85.5,25.9,82.2,27.2
		L82.2,27.2z"/>
	<path id="XMLID_31_" class="st2" d="M101,22c0.2-4.7-0.9-8.4-2.8-11.6c-0.2,0.2-0.4,0.4-0.6,0.6c-3.1,3.4-5,7.5-4.7,13.1
		c0.3,8.5,2.3,17.2,4,23.2C98.7,40.4,100.7,31.1,101,22"/>
</g>
<g id="XMLID_1_">
	<path id="XMLID_2_" d="M20,97.9c0,0.3,0,1-0.1,1.5c-0.2,1.1-1,1.5-2.2,1.5H5.3c-1.1,0-1.9-0.8-1.9-2.2V70.9l0.3-0.3H5
		c1.5,0,1.8,0.8,1.8,2.2V98c1.3-0.1,2.7-0.1,3.8-0.1H20z"/>
	<path id="XMLID_4_" d="M28.8,100.9c-0.4,0.1-1,0.1-1.6,0.1c-0.7,0-1.2,0-1.7-0.1v-17c0-1.6-0.4-2.1-1.8-2.1h-0.4
		c-0.1-0.4-0.2-0.8-0.2-1.2c0-0.4,0-0.8,0.2-1.2c1-0.1,1.7-0.2,2.2-0.2h0.4c1.9,0,2.9,1.2,2.9,3.2V100.9z M24.5,71.7
		c0.4-0.3,1.3-0.4,2-0.4c0.6,0,1.6,0.2,2,0.4c0.2,0.4,0.3,1.1,0.3,1.6s-0.1,1.3-0.3,1.6c-0.4,0.3-1.4,0.5-2,0.5
		c-0.7,0-1.5-0.2-2-0.5c-0.2-0.4-0.3-1.1-0.3-1.6S24.3,72,24.5,71.7z"/>
	<path id="XMLID_7_" d="M53,96.7c0,1.5,0.1,2.8,0.5,3.8c-0.4,0.4-1.3,0.7-2.1,0.7c-1.2,0-1.7-0.7-1.7-2.2V86.8
		c0-3.5-0.7-4.9-3.2-4.9c-2.3,0-5.1,1.4-6.8,3.4v15.7c-0.4,0.1-1,0.1-1.6,0.1c-0.7,0-1.2,0-1.7-0.1V79.3l0.3-0.3H38
		c1.5,0,1.8,0.8,1.8,2.3V82c1.9-1.9,4.8-3.1,7.6-3.1c4.2,0,5.7,3.1,5.7,6.9V96.7z"/>
	<path id="XMLID_9_" d="M75.2,96.9c0.7,1.5,1.3,2.7,2.1,3.3c-0.4,0.5-1.3,1-2.2,1c-1.5,0-1.9-0.9-2.6-2.3l-2-4.6
		c-1.1-2.5-1.9-3.3-4.4-3.3c-0.6,0-1.4,0-2.4,0.2v9.7c-0.4,0.1-1,0.1-1.6,0.1c-0.7,0-1.2,0-1.6-0.1V68.7l0.3-0.3H62
		c1.5,0,1.8,0.8,1.8,2.2v17.7l1.9-0.1c0.4,0,0.8-0.2,1-0.6l4.7-7c0.7-1,1.1-1.6,2.5-1.6c0.6,0,1,0,1.6,0.1l0.3,0.4l-5.6,8.2
		c-0.4,0.5-0.7,0.9-1.1,1.2c2.1,0.4,3.3,1.6,4.4,4.1L75.2,96.9z"/>
	<path id="XMLID_11_" d="M79.5,90.7c-0.1-0.4-0.2-0.9-0.2-1.5c0-0.6,0-1.1,0.2-1.6h10.1c0.1,0.5,0.1,1,0.1,1.6c0,0.6,0,1.1-0.1,1.5
		H79.5z"/>
	<path id="XMLID_13_" d="M112.9,98.8c-1.9,1.6-5.2,2.2-7.4,2.2c-3.5,0-5.1-0.1-9-0.2l-0.3-0.3V71l0.3-0.3c3.8-0.1,5.5-0.1,9-0.1
		c2.2,0,5.6,0.7,7.4,2.2c3.8,3.3,4.5,7.9,4.5,13C117.5,91,116.8,95.5,112.9,98.8z M105.5,73.4c-2.1,0-3.5,0-5.8,0v24.8
		c2.3,0,3.8,0,5.8,0c7.4,0,8.4-6.7,8.4-12.4C113.9,80.1,112.8,73.4,105.5,73.4z"/>
	<path id="XMLID_17_" d="M138,101.2c-1.6-0.6-2.4-1.6-2.7-3.1c-1.6,1.6-4,3.3-6.9,3.3c-4.3,0-6.4-3.3-6.4-6.4c0-4.9,3.4-7.1,8.2-7.1
		c1.5,0,3.3,0.1,4.9,0.4v-2.2c0-3.3-1.5-4.5-4-4.5c-2.4,0-4.9,0.8-7.2,1.8c-0.6-0.5-1.1-1.7-1.1-2.6c2.2-1,5.6-2.1,8.6-2.1
		c4.6,0,6.8,2.6,6.8,7.4v9.1c0,1.9,0.1,3.2,1.2,4.3C139.3,100.1,138.7,100.9,138,101.2z M135.1,95.1v-4.4c-1.5-0.2-3.2-0.3-4.8-0.3
		c-3,0-5,1.6-5,4.4c0,2.1,1.2,3.8,3.5,3.8C130.8,98.6,133.2,97.5,135.1,95.1z"/>
	<path id="XMLID_20_" d="M162.4,96.7c0,1.5,0.1,2.8,0.5,3.8c-0.4,0.4-1.3,0.7-2.1,0.7c-1.2,0-1.7-0.7-1.7-2.2V86.8
		c0-3.5-0.7-4.9-3.2-4.9c-2.3,0-5.1,1.4-6.8,3.4v15.7c-0.4,0.1-1,0.1-1.6,0.1c-0.7,0-1.2,0-1.7-0.1V79.3l0.3-0.3h1.2
		c1.5,0,1.8,0.8,1.8,2.3V82c1.9-1.9,4.8-3.1,7.6-3.1c4.2,0,5.7,3.1,5.7,6.9V96.7z"/>
	<path id="XMLID_22_" d="M171.7,91c0.1,4.4,1.6,7.5,5.7,7.5c2.4,0,4.5-0.8,6.4-1.9c0.6,0.5,1.1,1.5,1.2,2.2c-2,1.4-5,2.5-8,2.5
		c-6.6,0-8.7-5.3-8.7-11.4c0-6.5,3.2-11.3,8.8-11.3s8.5,4.2,8.5,9.4c0,1.1,0,1.9-0.2,2.9H171.7z M171.7,88.5h10.6v-0.6
		c0-3.7-1.5-6.7-5.2-6.7C173.8,81.2,172,84.1,171.7,88.5z"/>
</g>
</svg>
