<?xml version="1.0" encoding="utf-8"?>
<!-- Generator: Adobe Illustrator 19.0.0, SVG Export Plug-In . SVG Version: 6.00 Build 0)  -->
<svg version="1.1" id="Layer_1" xmlns="http://www.w3.org/2000/svg" xmlns:xlink="http://www.w3.org/1999/xlink" x="0px" y="0px"
	 viewBox="0 0 726.1 162.4" style="enable-background:new 0 0 726.1 162.4;" xml:space="preserve">
<style type="text/css">
	.st0{display:none;}
	.st1{display:inline;fill:#333333;}
	.st2{fill:#A60000;}
	.st3{fill:#B31212;}
	.st4{fill:#800000;}
	.st5{enable-background:new    ;}
</style>
<g id="Layer_2" class="st0">
	<path id="XMLID_56_" class="st1" d="M262.4,73.8c0-2.6-0.4-5.2-1.1-7.8c-0.7-2.6-2-4.9-3.6-6.9c-1.7-2-3.9-3.7-6.5-4.9
		s-5.8-1.8-9.6-1.8c-7.4,0-13.1,3.3-17.1,9.8s-6.1,15.8-6.1,27.7c0,12.1,2.1,21.3,6.2,27.8c4.2,6.5,10.1,9.7,17.7,9.7
		c7.7,0,15.5-3.4,23.4-10.3c2.7,1.6,4.5,3.7,5.5,6.5c-3.6,3.7-8.1,6.7-13.5,9c-5.3,2.3-11,3.4-17,3.4c-5.8,0-10.8-1.2-15-3.6
		c-4.2-2.4-7.6-5.7-10.2-9.8c-2.6-4.2-4.6-9-5.8-14.5c-1.3-5.5-1.9-11.4-1.9-17.6c0-7.7,0.9-14.5,2.6-20.3s4.1-10.6,7.2-14.5
		c3-3.9,6.6-6.8,10.7-8.7s8.4-2.9,13.1-2.9s8.9,0.7,12.7,2.1c3.8,1.4,7.1,3.2,9.7,5.5c2.7,2.3,4.8,4.9,6.2,7.8
		c1.5,2.9,2.2,6,2.2,9.1c0,3.9-1.8,5.9-5.5,5.9C265.5,74.4,264.1,74.2,262.4,73.8"/>
	<path id="XMLID_53_" class="st1" d="M684.3,130.2v25.7c0,2.3-0.3,4-1,5s-2.1,1.5-4.2,1.5h-3.5l-0.8-0.8V71l0.8-0.8h3.4
		c2.1,0,3.5,0.5,4.2,1.6s1.1,2.8,1.1,5.3v0.7c5.2-5.8,11.4-8.7,18.6-8.7c7.4,0,12.9,3,16.6,8.9c3.7,5.9,5.6,14.1,5.6,24.6
		c0,5.1-0.7,9.7-2,13.8s-3.1,7.5-5.3,10.3s-4.7,5-7.6,6.5c-2.9,1.5-5.8,2.3-8.8,2.3C695.4,135.5,689.7,133.7,684.3,130.2
		L684.3,130.2z M684.3,88v33.5c5.3,3.9,10.2,5.9,14.9,5.9s8.5-2.1,11.5-6.3s4.5-10.5,4.5-18.9c0-4.2-0.4-7.8-1.1-10.9
		c-0.7-3.1-1.7-5.6-2.9-7.7c-1.2-2-2.6-3.6-4.2-4.6c-1.6-1-3.3-1.5-5.1-1.5c-3.5,0-6.7,0.9-9.8,2.7C689,82.1,686.4,84.7,684.3,88
		L684.3,88z"/>
	<path id="XMLID_52_" class="st1" d="M659.9,126.9h5.5c0.3,0.8,0.6,1.7,0.7,2.6c0.1,1,0.2,1.8,0.2,2.6c0,0.5,0,0.9-0.1,1.3
		c0,0.3-0.1,0.6-0.1,0.7c-1.4,0.3-2.7,0.5-4,0.7s-2.6,0.3-3.9,0.3c-3.6,0-6.5-0.8-9-2.4c-2.4-1.6-3.6-4.4-3.6-8.5V39.7l0.8-0.8h3.5
		c2.1,0,3.5,0.5,4.2,1.5s1,2.7,1,5v75.9C655.1,125.1,656.7,126.9,659.9,126.9"/>
	<path id="XMLID_49_" class="st1" d="M633.9,105.5h-40.3c0.4,14.7,6,22.1,16.8,22.1c5.9,0,12.2-1.8,18.8-5.5
		c1.9,1.7,3.1,3.9,3.5,6.6c-7.1,4.9-15.1,7.3-23.9,7.3c-4.5,0-8.4-0.8-11.6-2.5c-3.2-1.7-5.8-4-7.9-7c-2-3-3.5-6.5-4.5-10.6
		s-1.4-8.5-1.4-13.4s0.6-9.4,1.8-13.5s2.9-7.6,5.1-10.5c2.3-2.9,5-5.2,8.1-6.9c3.2-1.6,6.8-2.5,10.9-2.5c4,0,7.6,0.7,10.7,2.1
		c3.2,1.4,5.8,3.4,7.9,5.9c2.1,2.5,3.7,5.4,4.9,8.8c1.1,3.4,1.7,7.1,1.7,11c0,1.6-0.1,3.1-0.2,4.5
		C634.2,102.8,634.1,104.2,633.9,105.5L633.9,105.5z M593.6,98.1h31.1v-1.7c0-6-1.3-10.8-3.8-14.4c-2.5-3.6-6.3-5.5-11.3-5.5
		c-4.9,0-8.7,2-11.5,5.9C595.5,86.3,594,91.5,593.6,98.1L593.6,98.1z"/>
	<path id="XMLID_48_" class="st1" d="M570.9,90v32.1c0,4.9,0.5,8.6,1.6,11.1c-1.5,1.4-3.5,2.1-6.1,2.1c-3.3,0-4.9-2.1-4.9-6.4V93
		c0-5.3-0.7-9-2.1-11.2c-1.4-2.2-3.8-3.3-7.3-3.3s-7.1,0.9-10.8,2.8c-3.7,1.9-6.8,4.3-9.4,7.2v46c-1.3,0.3-2.9,0.4-4.8,0.4
		c-1.8,0-3.4-0.1-4.7-0.4V39.7l0.8-0.8h3.5c2.1,0,3.5,0.5,4.2,1.5s1,2.7,1,5v33.5c2.9-2.8,6.4-5,10.4-6.8c4-1.7,8-2.6,12-2.6
		c5.8,0,10,1.9,12.7,5.7C569.5,79,570.9,84,570.9,90"/>
	<path id="XMLID_47_" class="st1" d="M508.2,89.9v32.2c0,4.9,0.5,8.6,1.4,11.1c-1.4,1.4-3.4,2.1-6.1,2.1c-3.3,0-4.9-2.1-4.9-6.4v-36
		c0-5.3-0.7-9-2-11.2s-3.8-3.3-7.4-3.3c-3.5,0-7.1,0.9-10.8,2.8c-3.7,1.9-6.8,4.3-9.4,7.2v46.2c-1.3,0.3-2.9,0.4-4.8,0.4
		c-1.9,0-3.5-0.1-4.8-0.4V71.2l0.8-0.8h3.6c2.1,0,3.5,0.5,4.2,1.6s1,2.8,1,5.1v1.8c2.9-2.8,6.4-5,10.4-6.7s8-2.5,12-2.5
		c5.8,0,10.1,1.9,12.7,5.6C506.9,78.9,508.2,83.8,508.2,89.9"/>
	<path id="XMLID_44_" class="st1" d="M447.4,105.5h-40.3c0.4,14.7,6,22.1,16.8,22.1c5.9,0,12.2-1.8,18.9-5.5
		c1.9,1.7,3.1,3.9,3.5,6.6c-7.1,4.9-15.1,7.3-23.9,7.3c-4.5,0-8.4-0.8-11.6-2.5s-5.8-4-7.9-7c-2-3-3.5-6.5-4.5-10.6
		s-1.4-8.5-1.4-13.4s0.6-9.4,1.8-13.5s2.9-7.6,5.1-10.5c2.3-2.9,5-5.2,8.1-6.9c3.2-1.6,6.8-2.5,10.9-2.5c4,0,7.6,0.7,10.7,2.1
		c3.2,1.4,5.8,3.4,7.9,5.9c2.1,2.5,3.7,5.4,4.9,8.8c1.1,3.4,1.7,7.1,1.7,11c0,1.6-0.1,3.1-0.2,4.5
		C447.7,102.8,447.5,104.2,447.4,105.5L447.4,105.5z M407.1,98.1h31.1v-1.7c0-6-1.3-10.8-3.8-14.4c-2.5-3.6-6.3-5.5-11.3-5.5
		c-4.9,0-8.7,2-11.5,5.9C408.9,86.3,407.4,91.5,407.1,98.1L407.1,98.1z"/>
	<path id="XMLID_41_" class="st1" d="M349,130.2v25.7c0,2.3-0.3,4-1,5s-2.1,1.5-4.2,1.5h-3.5l-0.8-0.8V71l0.8-0.8h3.4
		c2.1,0,3.5,0.5,4.2,1.6s1.1,2.8,1.1,5.3v0.7c5.2-5.8,11.4-8.7,18.6-8.7c7.4,0,12.9,3,16.6,8.9s5.6,14.1,5.6,24.6
		c0,5.1-0.7,9.7-2,13.8s-3.1,7.5-5.3,10.3c-2.2,2.8-4.7,5-7.6,6.5s-5.8,2.3-8.8,2.3C360,135.5,354.3,133.7,349,130.2L349,130.2z
		 M349,88v33.5c5.3,3.9,10.2,5.9,14.9,5.9c4.7,0,8.5-2.1,11.5-6.3s4.5-10.5,4.5-18.9c0-4.2-0.4-7.8-1.1-10.9
		c-0.7-3.1-1.7-5.6-2.9-7.7c-1.2-2-2.6-3.6-4.2-4.6s-3.3-1.5-5.1-1.5c-3.5,0-6.7,0.9-9.8,2.7S351,84.7,349,88L349,88z"/>
	<path id="XMLID_38_" class="st1" d="M322,129.2c-4.6,4.6-10.6,6.9-17.9,6.9c-4.3,0-8.2-0.8-11.5-2.5c-3.3-1.6-6.2-3.9-8.4-6.8
		c-2.3-2.9-4-6.4-5.2-10.5s-1.8-8.6-1.8-13.6s0.6-9.5,1.8-13.6c1.2-4.1,2.9-7.6,5.2-10.6c2.3-2.9,5.1-5.2,8.4-6.9
		c3.3-1.6,7.2-2.5,11.5-2.5s8.2,0.8,11.5,2.5c3.3,1.6,6.2,3.9,8.5,6.9c2.3,2.9,4.1,6.5,5.3,10.6c1.2,4.1,1.8,8.6,1.8,13.6
		C331.1,114.2,328.1,123.1,322,129.2L322,129.2z M304.2,128.5c5.6,0,9.8-2.4,12.7-7.1c2.9-4.7,4.4-11,4.4-18.8c0-3.5-0.3-6.8-1-9.9
		c-0.7-3.2-1.7-5.9-3.1-8.3c-1.4-2.4-3.2-4.3-5.4-5.7c-2.2-1.4-4.8-2.1-7.8-2.1s-5.5,0.7-7.6,2s-3.9,3.2-5.3,5.5s-2.4,5.1-3.1,8.3
		s-1,6.6-1,10.2c0,3.6,0.3,7,1,10.1s1.7,5.9,3,8.2s3.1,4.2,5.3,5.5C298.5,127.8,301.1,128.5,304.2,128.5L304.2,128.5z"/>
</g>
<path id="XMLID_35_" class="st2" d="M192.9,61.5c-0.6-12.7-6-25.3-16.1-34.6c-5-4.6-10.6-7.9-16.6-10.1s-12.5-3.2-19.2-2.9
	c-13.8,0.6-26,6.7-34.6,16.1c-8.6,9.4-13.6,20.6-13,35.8c1.5,41.5,17.9,85.5,17.9,85.5s40.8-23.1,68.7-54
	C190.1,86,193.5,74.3,192.9,61.5L192.9,61.5z M157.2,69c-2.8,7.8-11.5,11.8-19.2,9c-7.8-2.8-11.8-11.5-9-19.2
	c2.8-7.8,11.5-11.8,19.2-9C156,52.6,160,61.2,157.2,69L157.2,69z"/>
<path id="XMLID_32_" class="st3" d="M100.6,18.7C90.6,7.8,76.4,0.7,60.4,0C52.6-0.3,45,0.9,38.1,3.4c-6.9,2.5-13.5,6.4-19.3,11.7
	C7,25.9,0.7,40.5,0.1,55.3s3.3,28.5,15.2,41.6C47.7,132.7,95,159.6,95,159.6s19-51,20.8-99.3C116.4,42.6,110.6,29.6,100.6,18.7
	L100.6,18.7z M63.9,74.4C54.8,77.7,44.8,73,41.5,64c-3.3-9.1,1.4-19.1,10.4-22.4S71,43,74.3,52C77.7,61.1,73,71.1,63.9,74.4
	L63.9,74.4z"/>
<path id="XMLID_31_" class="st4" d="M115.7,60.3c0.5-12.8-2.4-23.1-7.8-31.9c-0.5,0.5-1.1,1.1-1.6,1.6c-8.6,9.4-13.6,20.6-13,35.8
	c0.8,23.2,6.3,47.1,11,63.7C109.4,110.6,114.8,85.1,115.7,60.3"/>
<g id="XMLID_1_" class="st5">
	<path id="XMLID_2_" d="M257.4,127.7c0,0.8,0,2.6-0.4,4c-0.5,2.9-2.6,4.2-5.9,4.2h-33.5c-2.9,0-5.3-2-5.3-6.1V54.4l0.7-0.7h3.6
		c4.1,0,4.8,2,4.8,6v68.4c3.6-0.2,7.3-0.4,10.4-0.4H257.4z"/>
	<path id="XMLID_4_" d="M281.5,135.8c-1.2,0.2-2.8,0.4-4.3,0.4c-1.8,0-3.4-0.1-4.6-0.4V89.6c0-4.4-1.2-5.7-4.9-5.7h-1.1
		c-0.4-1.2-0.5-2.2-0.5-3.4c0-1.1,0.1-2,0.5-3.2c2.6-0.4,4.7-0.6,6-0.6h1c5,0,7.9,3.4,7.9,8.6V135.8z M269.7,56.6
		c1.2-0.7,3.5-1.2,5.4-1.2c1.7,0,4.3,0.5,5.4,1.2c0.5,1,0.8,3,0.8,4.4c0,1.4-0.4,3.5-0.8,4.4c-1,0.7-3.7,1.3-5.4,1.3
		c-1.9,0-4.2-0.6-5.4-1.3c-0.5-1-0.8-3-0.8-4.4C268.9,59.6,269.3,57.5,269.7,56.6z"/>
	<path id="XMLID_7_" d="M347.2,124.5c0,4,0.2,7.5,1.3,10.2c-1.2,1.2-3.5,1.9-5.6,1.9c-3.4,0-4.6-1.9-4.6-5.9V97.5
		c0-9.5-1.9-13.4-8.7-13.4c-6.2,0-13.8,3.8-18.4,9.2v42.5c-1.2,0.2-2.8,0.4-4.3,0.4c-1.8,0-3.4-0.1-4.6-0.4V77.4l0.7-0.7h3.4
		c4.1,0,4.8,2.3,4.8,6.2v1.7c5.3-5,13.1-8.5,20.6-8.5c11.4,0,15.5,8.5,15.5,18.7V124.5z"/>
	<path id="XMLID_9_" d="M407.3,124.9c1.8,4.1,3.6,7.4,5.7,9c-1.1,1.4-3.6,2.6-5.9,2.6c-4,0-5.3-2.4-6.9-6.2l-5.5-12.5
		c-3-6.8-5.3-8.9-12-8.9c-1.6,0-3.8,0.1-6.5,0.5v26.3c-1.2,0.2-2.8,0.4-4.3,0.4c-1.8,0-3.2-0.1-4.4-0.4V48.5l0.7-0.7h3.2
		c4.1,0,4.8,2,4.8,6v48.1l5.1-0.2c1.2,0,2-0.6,2.8-1.7L397,81.1c1.8-2.8,3.1-4.4,6.7-4.4c1.7,0,2.8,0.1,4.4,0.2l0.7,1L393.7,100
		c-1,1.4-1.8,2.5-2.9,3.4c5.6,1.1,8.9,4.4,11.9,11L407.3,124.9z"/>
	<path id="XMLID_11_" d="M419.1,108.2c-0.4-1.1-0.5-2.4-0.5-4c0-1.7,0.1-3,0.5-4.3h27.5c0.2,1.3,0.4,2.6,0.4,4.3
		c0,1.6-0.1,2.9-0.4,4H419.1z"/>
	<path id="XMLID_13_" d="M509.9,130.2c-5,4.3-14,6.1-20.1,6.1c-9.5,0-13.9-0.2-24.3-0.5l-0.7-0.7V54.8l0.7-0.7
		c10.4-0.4,14.9-0.4,24.3-0.4c6.1,0,15.1,1.8,20.1,6.1c10.4,8.9,12.3,21.3,12.3,35.2C522.2,109,520.4,121.3,509.9,130.2z
		 M489.6,61.3c-5.6,0-9.6-0.1-15.8-0.1v67.3c6.2,0,10.2,0.1,15.8,0.1c20,0,22.9-18.3,22.9-33.7C512.5,79.6,509.6,61.3,489.6,61.3z"
		/>
	<path id="XMLID_16_" d="M577.9,136.7c-4.3-1.6-6.5-4.4-7.4-8.4c-4.4,4.3-10.9,9-18.8,9c-11.6,0-17.2-8.9-17.2-17.4
		c0-13.3,9.1-19.3,22.4-19.3c4.1,0,8.9,0.2,13.2,1.1v-6c0-9-4.2-12.2-10.8-12.2c-6.6,0-13.3,2.2-19.5,4.9c-1.7-1.4-3.1-4.6-3.1-6.9
		c6-2.6,15.1-5.6,23.5-5.6c12.5,0,18.6,7.1,18.6,20v24.7c0,5,0.4,8.7,3.4,11.6C581.4,133.7,579.7,135.8,577.9,136.7z M570,120.2v-12
		c-4.1-0.6-8.7-0.8-13.1-0.8c-8.3,0-13.5,4.3-13.5,12c0,5.7,3.4,10.4,9.5,10.4C558.4,129.7,565,126.6,570,120.2z"/>
	<path id="XMLID_19_" d="M644.1,124.5c0,4,0.2,7.5,1.3,10.2c-1.2,1.2-3.5,1.9-5.6,1.9c-3.4,0-4.6-1.9-4.6-5.9V97.5
		c0-9.5-1.9-13.4-8.7-13.4c-6.2,0-13.8,3.8-18.4,9.2v42.5c-1.2,0.2-2.8,0.4-4.3,0.4c-1.8,0-3.4-0.1-4.6-0.4V77.4l0.7-0.7h3.4
		c4.1,0,4.8,2.3,4.8,6.2v1.7c5.3-5,13.1-8.5,20.6-8.5c11.4,0,15.5,8.5,15.5,18.7V124.5z"/>
	<path id="XMLID_21_" d="M669.5,109.1c0.4,12,4.3,20.4,15.5,20.4c6.5,0,12.1-2.2,17.4-5c1.7,1.4,3,4.2,3.2,6.1
		c-5.5,3.8-13.7,6.7-21.8,6.7c-17.8,0-23.6-14.5-23.6-30.9c0-17.7,8.6-30.8,24-30.8s23.1,11.5,23.1,25.6c0,3-0.1,5-0.6,7.9H669.5z
		 M669.5,102.3h28.7v-1.6c0-9.9-4-18.3-14.1-18.3C675.2,82.4,670.1,90.4,669.5,102.3z"/>
</g>
</svg>
