<?xml version="1.0" encoding="utf-8"?>
<!-- Generator: Adobe Illustrator 19.0.0, SVG Export Plug-In . SVG Version: 6.00 Build 0)  -->
<svg version="1.1" id="Layer_1" xmlns:sketch="http://www.bohemiancoding.com/sketch/ns"
	 xmlns="http://www.w3.org/2000/svg" xmlns:xlink="http://www.w3.org/1999/xlink" x="0px" y="0px" viewBox="-205 337 200 120"
	 style="enable-background:new -205 337 200 120;" xml:space="preserve">
<style type="text/css">
	.st0{display:none;}
	.st1{display:inline;fill:#333333;}
	.st2{display:inline;fill:none;}
	.st3{display:inline;}
	.st4{fill:#A60000;}
	.st5{fill:#B31212;}
	.st6{fill:#800000;}
	.st7{font-family:'MyriadPro-Regular';}
	.st8{font-size:39.5099px;}
</style>
<title>Header-Logo</title>
<desc>Created with Sketch.</desc>
<g id="iPhone" sketch:type="MSPage">
	<g id="Header-Logo" sketch:type="MSArtboardGroup">
		<g id="Group" transform="translate(5.000000, 70.000000)" sketch:type="MSLayerGroup" class="st0">
			<path id="Fill-12-Copy" sketch:type="MSShapeGroup" class="st1" d="M-30.1,370.9v9.4c0,0.9-0.1,1.5-0.4,1.8
				c-0.3,0.4-0.8,0.5-1.5,0.5h-1.3l-0.3-0.3v-33.1l0.3-0.3h1.2c0.8,0,1.3,0.2,1.5,0.6c0.3,0.4,0.4,1,0.4,1.9v0.2
				c1.9-2.1,4.2-3.2,6.8-3.2c2.7,0,4.7,1.1,6.1,3.3c1.4,2.2,2,5.2,2,9c0,1.9-0.2,3.6-0.7,5c-0.5,1.5-1.1,2.8-2,3.8
				c-0.8,1-1.7,1.8-2.8,2.4c-1,0.6-2.1,0.8-3.2,0.8C-26.1,372.8-28.1,372.2-30.1,370.9L-30.1,370.9z M-30.1,355.4v12.3
				c1.9,1.4,3.7,2.1,5.5,2.1c1.7,0,3.1-0.8,4.2-2.3c1.1-1.5,1.7-3.8,1.7-6.9c0-1.5-0.1-2.9-0.4-4c-0.3-1.1-0.6-2.1-1.1-2.8
				c-0.4-0.7-1-1.3-1.5-1.7c-0.6-0.4-1.2-0.5-1.9-0.5c-1.3,0-2.5,0.3-3.6,1C-28.4,353.3-29.4,354.2-30.1,355.4L-30.1,355.4z"/>
			<path id="Fill-11-Copy" sketch:type="MSShapeGroup" class="st1" d="M-39.1,369.7h2c0.1,0.3,0.2,0.6,0.3,1c0,0.4,0.1,0.7,0.1,1
				c0,0.2,0,0.3,0,0.5c0,0.1,0,0.2,0,0.3c-0.5,0.1-1,0.2-1.5,0.2c-0.5,0.1-1,0.1-1.4,0.1c-1.3,0-2.4-0.3-3.3-0.9
				c-0.9-0.6-1.3-1.6-1.3-3.1v-30.9l0.3-0.3h1.3c0.8,0,1.3,0.2,1.5,0.5c0.3,0.4,0.4,1,0.4,1.8v27.8C-40.8,369-40.2,369.7-39.1,369.7
				"/>
			<path id="Fill-10-Copy" sketch:type="MSShapeGroup" class="st1" d="M-48.6,361.9h-14.8c0.2,5.4,2.2,8.1,6.1,8.1
				c2.2,0,4.5-0.7,6.9-2c0.7,0.6,1.1,1.4,1.3,2.4c-2.6,1.8-5.5,2.7-8.8,2.7c-1.7,0-3.1-0.3-4.2-0.9c-1.2-0.6-2.1-1.5-2.9-2.6
				c-0.7-1.1-1.3-2.4-1.6-3.9c-0.3-1.5-0.5-3.1-0.5-4.9c0-1.8,0.2-3.5,0.6-4.9c0.4-1.5,1.1-2.8,1.9-3.9c0.8-1.1,1.8-1.9,3-2.5
				c1.2-0.6,2.5-0.9,4-0.9c1.5,0,2.8,0.3,3.9,0.8c1.2,0.5,2.1,1.2,2.9,2.1c0.8,0.9,1.4,2,1.8,3.2c0.4,1.3,0.6,2.6,0.6,4
				c0,0.6,0,1.1-0.1,1.6C-48.5,360.9-48.5,361.4-48.6,361.9L-48.6,361.9z M-63.4,359.1H-52v-0.6c0-2.2-0.5-3.9-1.4-5.3
				c-0.9-1.3-2.3-2-4.1-2c-1.8,0-3.2,0.7-4.2,2.1C-62.7,354.8-63.2,356.7-63.4,359.1L-63.4,359.1z"/>
			<path id="Fill-9-Copy" sketch:type="MSShapeGroup" class="st1" d="M-71.7,356.2v11.7c0,1.8,0.2,3.2,0.6,4
				c-0.5,0.5-1.3,0.8-2.2,0.8c-1.2,0-1.8-0.8-1.8-2.3v-13.1c0-1.9-0.3-3.3-0.8-4.1c-0.5-0.8-1.4-1.2-2.7-1.2c-1.3,0-2.6,0.3-4,1
				c-1.4,0.7-2.5,1.6-3.4,2.6v16.8c-0.5,0.1-1.1,0.1-1.8,0.1c-0.7,0-1.2,0-1.7-0.1v-34.7l0.3-0.3h1.3c0.8,0,1.3,0.2,1.5,0.5
				c0.3,0.4,0.4,1,0.4,1.8v12.3c1.1-1,2.3-1.8,3.8-2.5c1.5-0.6,2.9-1,4.4-1c2.1,0,3.7,0.7,4.6,2.1C-72.2,352.2-71.7,354-71.7,356.2"
				/>
			<path id="SVGID_x5F_1_x5F_" sketch:type="MSShapeGroup" class="st2" d="M-94.7,356.1v11.8c0,1.8,0.2,3.2,0.5,4
				c-0.5,0.5-1.3,0.8-2.2,0.8c-1.2,0-1.8-0.8-1.8-2.3v-13.2c0-1.9-0.2-3.3-0.7-4.1c-0.5-0.8-1.4-1.2-2.7-1.2c-1.3,0-2.6,0.3-4,1
				c-1.4,0.7-2.5,1.6-3.4,2.6v16.9c-0.5,0.1-1.1,0.1-1.8,0.1c-0.7,0-1.3,0-1.8-0.1v-23.2l0.3-0.3h1.3c0.8,0,1.3,0.2,1.5,0.6
				c0.3,0.4,0.4,1,0.4,1.9v0.7c1.1-1,2.3-1.8,3.8-2.4c1.5-0.6,2.9-0.9,4.4-0.9c2.1,0,3.7,0.7,4.7,2
				C-95.1,352.1-94.7,353.9-94.7,356.1"/>
			<text class="st3">			<textPath  xlink:href="#SVGID_x5F_1_x5F_" startOffset="27.2727%">
			</textPath>
</text>
			<path id="Fill-7-Copy" sketch:type="MSShapeGroup" class="st1" d="M-116.9,361.9h-14.8c0.2,5.4,2.2,8.1,6.1,8.1
				c2.2,0,4.5-0.7,6.9-2c0.7,0.6,1.1,1.4,1.3,2.4c-2.6,1.8-5.5,2.7-8.8,2.7c-1.7,0-3.1-0.3-4.2-0.9c-1.2-0.6-2.1-1.5-2.9-2.6
				c-0.7-1.1-1.3-2.4-1.6-3.9c-0.3-1.5-0.5-3.1-0.5-4.9c0-1.8,0.2-3.5,0.6-4.9c0.4-1.5,1.1-2.8,1.9-3.9c0.8-1.1,1.8-1.9,3-2.5
				c1.2-0.6,2.5-0.9,4-0.9c1.5,0,2.8,0.3,3.9,0.8c1.2,0.5,2.1,1.2,2.9,2.1c0.8,0.9,1.4,2,1.8,3.2c0.4,1.3,0.6,2.6,0.6,4
				c0,0.6,0,1.1-0.1,1.6C-116.8,360.9-116.9,361.4-116.9,361.9L-116.9,361.9z M-131.7,359.1h11.4v-0.6c0-2.2-0.5-3.9-1.4-5.3
				c-0.9-1.3-2.3-2-4.1-2c-1.8,0-3.2,0.7-4.2,2.1C-131,354.8-131.6,356.7-131.7,359.1L-131.7,359.1z"/>
			<path id="Fill-6-Copy" sketch:type="MSShapeGroup" class="st1" d="M-153,370.9v9.4c0,0.9-0.1,1.5-0.4,1.8
				c-0.3,0.4-0.8,0.5-1.5,0.5h-1.3l-0.3-0.3v-33.1l0.3-0.3h1.2c0.8,0,1.3,0.2,1.5,0.6c0.3,0.4,0.4,1,0.4,1.9v0.2
				c1.9-2.1,4.2-3.2,6.8-3.2c2.7,0,4.7,1.1,6.1,3.3c1.4,2.2,2,5.2,2,9c0,1.9-0.2,3.6-0.7,5c-0.5,1.5-1.1,2.8-2,3.8
				c-0.8,1-1.7,1.8-2.8,2.4s-2.1,0.8-3.2,0.8C-149,372.8-151,372.2-153,370.9L-153,370.9z M-153,355.4v12.3c1.9,1.4,3.7,2.1,5.5,2.1
				c1.7,0,3.1-0.8,4.2-2.3c1.1-1.5,1.7-3.8,1.7-6.9c0-1.5-0.1-2.9-0.4-4c-0.3-1.1-0.6-2.1-1.1-2.8c-0.4-0.7-1-1.3-1.5-1.7
				c-0.6-0.4-1.2-0.5-1.9-0.5c-1.3,0-2.5,0.3-3.6,1C-151.3,353.3-152.2,354.2-153,355.4L-153,355.4z"/>
			<path id="Fill-5-Copy" sketch:type="MSShapeGroup" class="st1" d="M-162.9,370.5c-1.7,1.7-3.9,2.5-6.6,2.5c-1.6,0-3-0.3-4.2-0.9
				c-1.2-0.6-2.3-1.4-3.1-2.5c-0.8-1.1-1.5-2.3-1.9-3.9c-0.4-1.5-0.6-3.2-0.6-5s0.2-3.5,0.6-5c0.4-1.5,1.1-2.8,1.9-3.9
				c0.8-1.1,1.9-1.9,3.1-2.5c1.2-0.6,2.6-0.9,4.2-0.9c1.6,0,3,0.3,4.2,0.9c1.2,0.6,2.3,1.4,3.1,2.5c0.8,1.1,1.5,2.4,1.9,3.9
				c0.4,1.5,0.7,3.2,0.7,5C-159.5,365.1-160.6,368.3-162.9,370.5L-162.9,370.5z M-169.4,370.3c2,0,3.6-0.9,4.7-2.6
				c1.1-1.7,1.6-4,1.6-6.9c0-1.3-0.1-2.5-0.4-3.6c-0.2-1.2-0.6-2.2-1.1-3c-0.5-0.9-1.2-1.6-2-2.1c-0.8-0.5-1.8-0.8-2.9-0.8
				c-1.1,0-2,0.2-2.8,0.7c-0.8,0.5-1.4,1.2-1.9,2c-0.5,0.9-0.9,1.9-1.1,3c-0.2,1.2-0.4,2.4-0.4,3.7c0,1.3,0.1,2.6,0.4,3.7
				c0.2,1.1,0.6,2.1,1.1,3c0.5,0.9,1.1,1.5,1.9,2C-171.5,370-170.5,370.3-169.4,370.3L-169.4,370.3z"/>
			<path id="Fill-4-Copy" sketch:type="MSShapeGroup" class="st1" d="M-184.7,350.2c0-1-0.1-1.9-0.4-2.8c-0.3-0.9-0.7-1.8-1.3-2.5
				c-0.6-0.7-1.4-1.3-2.4-1.8c-1-0.4-2.1-0.7-3.5-0.7c-2.7,0-4.8,1.2-6.3,3.6c-1.5,2.4-2.2,5.8-2.2,10.1c0,4.4,0.8,7.8,2.3,10.2
				c1.5,2.4,3.7,3.5,6.5,3.5c2.8,0,5.7-1.3,8.6-3.8c1,0.6,1.7,1.4,2,2.4c-1.3,1.4-3,2.5-4.9,3.3c-2,0.8-4,1.3-6.2,1.3
				c-2.1,0-4-0.4-5.5-1.3c-1.5-0.9-2.8-2.1-3.7-3.6c-1-1.5-1.7-3.3-2.1-5.3c-0.5-2-0.7-4.2-0.7-6.4c0-2.8,0.3-5.3,1-7.4
				c0.6-2.1,1.5-3.9,2.6-5.3c1.1-1.4,2.4-2.5,3.9-3.2c1.5-0.7,3.1-1.1,4.8-1.1c1.7,0,3.3,0.3,4.7,0.8c1.4,0.5,2.6,1.2,3.6,2
				c1,0.8,1.7,1.8,2.3,2.9c0.5,1.1,0.8,2.2,0.8,3.3c0,1.4-0.7,2.1-2,2.1C-183.6,350.5-184.1,350.4-184.7,350.2"/>
		</g>
		<g id="Fill-1-_x2B_-Fill-2-_x2B_-Fill-3-Copy" transform="translate(64.000000, 4.000000)" sketch:type="MSLayerGroup">
			<path id="Fill-1" sketch:type="MSShapeGroup" class="st4" d="M-134.2,359.8c-0.2-4.7-2.2-9.2-5.9-12.6c-1.8-1.7-3.9-2.9-6.1-3.7
				c-2.2-0.8-4.6-1.2-7-1.1c-5,0.2-9.5,2.5-12.7,5.9c-3.2,3.4-5,7.5-4.8,13.1c0.6,15.2,6.6,31.3,6.6,31.3s14.9-8.5,25.2-19.7
				C-135.2,368.7-134,364.4-134.2,359.8L-134.2,359.8z M-147.3,362.5c-1,2.9-4.2,4.3-7.1,3.3c-2.9-1-4.3-4.2-3.3-7
				c1-2.9,4.2-4.3,7.1-3.3S-146.2,359.7-147.3,362.5L-147.3,362.5z"/>
			<path id="Fill-2" sketch:type="MSShapeGroup" class="st5" d="M-168,344.1c-3.7-4-8.9-6.6-14.7-6.9c-2.9-0.1-5.6,0.3-8.2,1.3
				c-2.5,0.9-5,2.4-7.1,4.3c-4.3,4-6.6,9.3-6.9,14.7c-0.2,5.4,1.2,10.4,5.6,15.2c11.9,13.1,29.2,22.9,29.2,22.9s7-18.7,7.6-36.3
				C-162.2,352.8-164.3,348.1-168,344.1L-168,344.1z M-181.4,364.5c-3.3,1.2-7-0.5-8.2-3.8c-1.2-3.3,0.5-7,3.8-8.2
				c3.3-1.2,7,0.5,8.2,3.8C-176.4,359.6-178.1,363.3-181.4,364.5L-181.4,364.5z"/>
			<path id="Fill-3" sketch:type="MSShapeGroup" class="st6" d="M-162.4,359.3c0.2-4.7-0.9-8.4-2.9-11.7c-0.2,0.2-0.4,0.4-0.6,0.6
				c-3.2,3.4-5,7.5-4.8,13.1c0.3,8.5,2.3,17.2,4,23.3C-164.8,377.7-162.8,368.4-162.4,359.3"/>
		</g>
	</g>
</g>
<text transform="matrix(1 0 0 1 -182.6047 439.8377)" class="st7 st8">Link-Dane</text>
</svg>
